<?xml version="1.0" standalone="no"?>
<!DOCTYPE svg PUBLIC "-//W3C//DTD SVG 20010904//EN"
 "http://www.w3.org/TR/2001/REC-SVG-20010904/DTD/svg10.dtd">
<svg version="1.0" xmlns="http://www.w3.org/2000/svg"
 width="500.000000pt" height="500.000000pt" viewBox="0 0 500.000000 500.000000"
 preserveAspectRatio="xMidYMid meet">
<metadata>
Created by potrace 1.11, written by Peter Selinger 2001-2013
</metadata>
<g transform="translate(0.000000,500.000000) scale(0.100000,-0.100000)"
fill="#000000" stroke="none">
<path d="M0 2500 l0 -2500 2500 0 2500 0 0 2500 0 2500 -2500 0 -2500 0 0
-2500z m3190 1990 l33 -31 -6 -92 c-9 -157 -69 -281 -192 -396 l-64 -60 52
-37 c141 -100 269 -243 379 -421 265 -428 397 -968 314 -1290 -59 -229 -177
-380 -390 -497 -313 -173 -922 -196 -1296 -49 -420 164 -590 521 -495 1038 69
371 252 764 477 1024 64 74 189 185 243 217 17 10 13 17 -50 81 -113 113 -163
214 -185 370 -9 70 -9 87 5 112 32 64 6 61 601 61 l542 0 32 -30z m280 -3231
c51 -23 100 -66 100 -88 0 -42 -64 -67 -91 -34 -49 59 -176 55 -237 -8 -83
-85 -59 -255 43 -304 55 -25 138 -17 192 19 48 32 79 29 94 -11 23 -60 -76
-123 -193 -123 -177 0 -282 105 -283 285 0 68 4 89 28 137 16 32 45 71 65 88
72 60 198 77 282 39z m-2230 -9 c19 -19 20 -33 20 -253 0 -194 -3 -236 -16
-255 -20 -28 -69 -30 -84 -3 -6 12 -10 113 -10 257 0 207 2 240 17 256 21 24
48 23 73 -2z m232 -7 c14 -16 57 -72 96 -125 40 -54 75 -98 79 -98 5 1 50 57
101 125 97 131 115 144 154 108 16 -15 18 -36 18 -256 0 -210 -2 -243 -17
-259 -18 -20 -40 -23 -63 -8 -12 7 -16 42 -20 170 l-5 160 -64 -81 c-73 -93
-101 -115 -128 -101 -10 6 -45 49 -78 96 l-60 85 -3 -151 c-3 -167 -11 -192
-61 -186 -46 5 -51 34 -51 278 0 188 3 229 16 248 21 30 55 28 86 -5z m900 -2
c54 -37 79 -81 85 -150 7 -77 -21 -140 -80 -179 -35 -24 -52 -27 -143 -30
l-104 -4 0 -63 c0 -87 -34 -119 -86 -81 -18 14 -19 28 -19 261 0 235 1 247 20
262 16 11 47 14 156 11 124 -3 139 -5 171 -27z m556 -215 c67 -132 122 -247
122 -257 0 -27 -29 -50 -59 -47 -19 2 -32 15 -49 46 l-23 42 -148 0 -147 0
-22 -45 c-18 -38 -26 -45 -51 -45 -32 0 -61 22 -61 47 0 17 226 460 248 486
10 11 26 17 41 15 23 -3 41 -32 149 -242z m1170 232 c7 -7 12 -24 12 -38 0
-42 -17 -50 -102 -50 l-78 0 0 -207 c0 -178 -2 -209 -17 -225 -22 -25 -59 -23
-77 4 -13 19 -16 58 -16 225 l0 203 -78 0 c-85 0 -102 8 -102 50 0 14 5 31 12
38 17 17 429 17 446 0z"/>
<path d="M2235 4283 c11 -45 53 -109 104 -156 161 -151 390 -151 551 -1 44 41
89 111 105 162 l6 22 -386 0 -387 0 7 -27z"/>
<path d="M2550 3798 c-120 -18 -266 -113 -388 -251 -194 -219 -368 -587 -432
-912 -29 -150 -30 -351 -2 -447 71 -236 245 -369 570 -435 125 -25 499 -25
629 0 264 51 429 151 526 317 135 234 63 728 -169 1159 -217 401 -483 608
-734 569z m-47 -742 c29 -14 66 -39 81 -55 l29 -30 44 39 c142 124 386 105
517 -41 82 -91 120 -224 96 -338 -16 -74 -79 -190 -150 -276 -65 -79 -215
-210 -320 -280 -41 -27 -77 -52 -80 -55 -38 -38 -146 -54 -170 -25 -7 8 -17
15 -23 15 -16 0 -172 115 -269 198 -225 194 -323 368 -304 545 28 258 316 417
549 303z"/>
<path d="M2264 2857 c-41 -20 -56 -34 -73 -69 -40 -83 -26 -145 56 -254 68
-91 226 -232 345 -307 26 -16 27 -16 105 39 219 157 363 330 363 436 0 21 -10
58 -22 83 -17 35 -33 51 -72 70 -27 14 -60 25 -73 25 -41 0 -88 -26 -126 -70
-31 -36 -37 -51 -37 -88 0 -38 -5 -50 -39 -83 -32 -32 -46 -39 -78 -39 -21 0
-49 7 -62 16 -27 19 -51 71 -51 111 0 61 -79 141 -147 149 -27 4 -53 -2 -89
-19z"/>
<path d="M2130 1075 l0 -95 86 0 c81 0 87 1 115 29 31 32 36 64 17 106 -18 40
-57 55 -143 55 l-75 0 0 -95z"/>
<path d="M2752 1074 c-12 -23 -32 -67 -46 -98 l-25 -56 89 0 c103 0 99 -14 37
120 l-34 75 -21 -41z"/>
</g>
</svg>
